<?xml version="1.0" encoding="UTF-8" ?>
<svg version="1.1" width="48" height="48" xmlns="http://www.w3.org/2000/svg" shape-rendering="crispEdges">
<rect x="21" y="6" width="6" height="3" fill="#2E222F" />
<rect x="15" y="9" width="6" height="3" fill="#2E222F" />
<rect x="21" y="9" width="6" height="9" fill="#625565" />
<rect x="27" y="9" width="6" height="3" fill="#2E222F" />
<rect x="12" y="12" width="3" height="3" fill="#2E222F" />
<rect x="15" y="12" width="6" height="3" fill="#625565" />
<rect x="27" y="12" width="6" height="6" fill="#625565" />
<rect x="33" y="12" width="3" height="3" fill="#2E222F" />
<rect x="9" y="15" width="3" height="12" fill="#2E222F" />
<rect x="12" y="15" width="6" height="3" fill="#625565" />
<rect x="18" y="15" width="3" height="3" fill="#966C6C" />
<rect x="33" y="15" width="3" height="9" fill="#625565" />
<rect x="36" y="15" width="3" height="15" fill="#2E222F" />
<rect x="12" y="18" width="3" height="9" fill="#3E3546" />
<rect x="15" y="18" width="6" height="3" fill="#625565" />
<rect x="21" y="18" width="6" height="3" fill="#966C6C" />
<rect x="27" y="18" width="3" height="3" fill="#625565" />
<rect x="30" y="18" width="3" height="3" fill="#966C6C" />
<rect x="15" y="21" width="3" height="12" fill="#3E3546" />
<rect x="18" y="21" width="6" height="3" fill="#625565" />
<rect x="24" y="21" width="9" height="3" fill="#3E3546" />
<rect x="18" y="24" width="6" height="3" fill="#3E3546" />
<rect x="24" y="24" width="9" height="3" fill="#F68181" />
<rect x="33" y="24" width="3" height="6" fill="#3E3546" />
<rect x="12" y="27" width="3" height="9" fill="#2E222F" />
<rect x="18" y="27" width="3" height="3" fill="#3E3546" />
<rect x="21" y="27" width="3" height="3" fill="#FFFFFF" />
<rect x="24" y="27" width="3" height="3" fill="#4D9BE6" />
<rect x="27" y="27" width="3" height="9" fill="#FDCBB0" />
<rect x="30" y="27" width="3" height="3" fill="#4D9BE6" />
<rect x="18" y="30" width="9" height="3" fill="#FDCBB0" />
<rect x="30" y="30" width="3" height="3" fill="#FDCBB0" />
<rect x="33" y="30" width="3" height="3" fill="#2E222F" />
<rect x="6" y="33" width="6" height="3" fill="#2E222F" />
<rect x="15" y="33" width="3" height="3" fill="#2E222F" />
<rect x="18" y="33" width="3" height="3" fill="#F68181" />
<rect x="21" y="33" width="6" height="3" fill="#FDCBB0" />
<rect x="30" y="33" width="3" height="3" fill="#2E222F" />
<rect x="3" y="36" width="3" height="3" fill="#2E222F" />
<rect x="6" y="36" width="3" height="3" fill="#FFFFFF" />
<rect x="9" y="36" width="3" height="3" fill="#C7DCD0" />
<rect x="12" y="36" width="3" height="3" fill="#9BABB2" />
<rect x="15" y="36" width="6" height="6" fill="#9E4539" />
<rect x="21" y="36" width="6" height="3" fill="#F68181" />
<rect x="27" y="36" width="3" height="6" fill="#9E4539" />
<rect x="30" y="36" width="3" height="6" fill="#7F708A" />
<rect x="33" y="36" width="3" height="9" fill="#2E222F" />
<rect x="0" y="39" width="3" height="6" fill="#2E222F" />
<rect x="3" y="39" width="3" height="3" fill="#FFFFFF" />
<rect x="6" y="39" width="3" height="3" fill="#C7DCD0" />
<rect x="9" y="39" width="3" height="3" fill="#9BABB2" />
<rect x="12" y="39" width="3" height="3" fill="#7F708A" />
<rect x="21" y="39" width="6" height="3" fill="#9E4539" />
<rect x="3" y="42" width="9" height="3" fill="#7F708A" />
<rect x="12" y="42" width="6" height="6" fill="#9E4539" />
<rect x="18" y="42" width="12" height="6" fill="#CD683D" />
<rect x="30" y="42" width="3" height="6" fill="#3E3546" />
<rect x="0" y="45" width="9" height="3" fill="#3E3546" />
<rect x="9" y="45" width="3" height="3" fill="#6E2727" />
<rect x="33" y="45" width="3" height="3" fill="#3E3546" />
<rect x="36" y="45" width="3" height="3" fill="#2E222F" />
</svg>