<!-- Created with PixiEditor (https://pixieditor.net) -->
<svg version="1.1" viewBox="0 0 256 256" xmlns="http://www.w3.org/2000/svg">
  <path d="M0 0L0 3.99753L2.00261 3.99753L2.00261 1.99013L3.99423 1.99013L3.99423 0L0 0ZM12.0058 0L12.0058 1.99013L14.0026 1.99013L14.0026 3.99753L16 3.99753L16 0L12.0058 0ZM0 11.9984L0 16L3.99423 16L3.99423 14.0004L2.00261 14.0004L2.00261 11.9984L0 11.9984ZM14.0026 11.9984L14.0026 14.0004L12.0058 14.0004L12.0058 16L16 16L16 11.9984L14.0026 11.9984ZM9.99919 1.99013L9.99919 0L6.00087 0L6.00087 1.99013M16 10.0025L14.0026 10.0025L14.0026 6.00639L16 6.00639M0 6.00639L2.00261 6.00639L2.00261 10.0025L0 10.0025M6.00087 16C6.00087 16 9.99919 16 9.99919 16L9.99919 14.0004C9.99919 14.0004 6.00087 14.0004 6.00087 14.0004" fill-rule="nonzero" transform="matrix(16, 0, 0, 16, 0, 0)" fill="#6997ff" fill-opacity="0.5607843399047852" stroke="#ffffff" stroke-width="0" stroke-linecap="butt" stroke-linejoin="miter" opacity="1" id="Path" />
  <path d="M9.08302 4.06987Q8.98252 4.06959 8.88243 4.07871Q8.78234 4.08784 8.68355 4.10629Q8.58475 4.12474 8.48811 4.15236Q8.39148 4.17997 8.29785 4.2165Q8.20422 4.25304 8.11442 4.29817Q8.02462 4.3433 7.93944 4.39664Q7.85425 4.44998 7.77443 4.51105Q7.69461 4.57212 7.62086 4.6404Q7.5471 4.70867 7.48006 4.78354Q7.41301 4.85842 7.35327 4.93923Q7.29352 5.02005 7.2416 5.10611Q7.18968 5.19216 7.14604 5.28269Q7.1024 5.37323 7.06742 5.46745Q7.03243 5.56167 7.00642 5.65875Q6.98041 5.75583 6.9636 5.85492Q6.94678 5.954 6.93931 6.05423Q6.85155 5.97348 6.75538 5.90297Q6.65921 5.83246 6.55581 5.77305Q6.45241 5.71364 6.34306 5.66607Q6.23371 5.61849 6.11975 5.58334Q6.0058 5.54819 5.88865 5.52589Q5.7715 5.50359 5.6526 5.49443Q5.5337 5.48526 5.41452 5.48934Q5.29534 5.49342 5.17734 5.51069Q5.05935 5.52796 4.944 5.55822Q4.82865 5.58847 4.71736 5.63133Q4.60608 5.67419 4.50024 5.72913Q4.39439 5.78407 4.2953 5.85041Q4.1962 5.91675 4.10507 5.99367Q4.01395 6.07059 3.93191 6.15715Q3.84988 6.2437 3.77795 6.33882Q3.70603 6.43394 3.64509 6.53645Q3.58416 6.63896 3.53497 6.74759Q3.48579 6.85623 3.44895 6.96965Q3.41212 7.08307 3.38809 7.19988Q3.36406 7.31668 3.35314 7.43543Q3.34221 7.55418 3.34453 7.67341Q3.34684 7.79264 3.36237 7.91088Q3.37789 8.02912 3.40644 8.1449Q3.43498 8.26069 3.47619 8.37259Q3.5174 8.4845 3.57077 8.59114Q3.62414 8.69779 3.689 8.79786Q3.75387 8.89792 3.82943 8.99018Q3.905 9.08243 3.99033 9.16574Q4.07566 9.24904 4.16971 9.32237Q4.26375 9.39569 4.36535 9.45814Q4.46694 9.52058 4.57484 9.57137Q4.68274 9.62216 4.7956 9.66067L4.7956 11.2156Q4.7956 11.286 4.80933 11.355Q4.82306 11.424 4.84999 11.489Q4.87692 11.554 4.91603 11.6126Q4.95513 11.6711 5.00489 11.7208Q5.05466 11.7706 5.11317 11.8097Q5.17169 11.8488 5.23671 11.8757Q5.30174 11.9027 5.37076 11.9164Q5.43979 11.9301 5.51017 11.9301L9.79759 11.9301Q9.86797 11.9301 9.937 11.9164Q10.006 11.9027 10.071 11.8757Q10.1361 11.8488 10.1946 11.8097Q10.2531 11.7706 10.3029 11.7208Q10.3526 11.6711 10.3917 11.6126Q10.4308 11.554 10.4578 11.489Q10.4847 11.424 10.4984 11.355Q10.5122 11.286 10.5122 11.2156L10.5122 10.501L12.6559 11.9301L12.6559 7.64272L10.5122 9.07186L10.5122 7.80707Q10.6322 7.69902 10.7348 7.57421Q10.8373 7.44939 10.9199 7.31062Q11.0026 7.17185 11.0635 7.02225Q11.1245 6.87266 11.1623 6.71563Q11.2001 6.5586 11.214 6.39767Q11.2279 6.23674 11.2175 6.07556Q11.2071 5.91437 11.1726 5.75656Q11.1382 5.59874 11.0805 5.44788Q11.0228 5.29701 10.9432 5.15649Q10.8635 5.01596 10.7637 4.88896Q10.6639 4.76197 10.5462 4.65136Q10.4285 4.54075 10.2955 4.44902Q10.1626 4.3573 10.0174 4.28654Q9.87216 4.21577 9.718 4.16756Q9.56384 4.11936 9.40419 4.09479Q9.24455 4.07023 9.08302 4.06987Z" fill-rule="nonzero" transform="matrix(19.19631, 0, -1.0982389E-15, 19.196308, -25.570469, -25.570461)" fill="#6393ff" fill-opacity="1" stroke="#ffffff" stroke-width="0" stroke-linecap="butt" stroke-linejoin="miter" opacity="1" id="Path" />
</svg>