<!-- Created with PixiEditor (https://pixieditor.net) -->
<svg version="1.1" viewBox="0 0 25600 25600" xmlns="http://www.w3.org/2000/svg">
  <path d="M7.99809 4.772C6.36748 4.772 4.30515 5.82002 3.56286 7.84129Q3.5127 7.98924 3.56286 8.13719C4.27581 10.2655 6.40383 11.228 7.99809 11.228C9.59234 11.228 11.7197 10.2655 12.4371 8.14795Q12.4873 8 12.4371 7.85205C11.7357 5.81303 9.62678 4.772 7.99809 4.772ZM7.99809 5.848Q8.1234 5.848 8.24811 5.85836Q8.37282 5.86872 8.49572 5.88935Q8.61863 5.90997 8.73855 5.94066Q8.85847 5.97135 8.97424 6.01181Q9.09001 6.05227 9.20053 6.1021Q9.31105 6.15194 9.41524 6.21067Q9.51944 6.26941 9.6163 6.33648Q9.71317 6.40355 9.80178 6.4783Q9.89039 6.55306 9.96989 6.63478Q10.0494 6.71651 10.119 6.80441Q10.1886 6.89231 10.2477 6.98555Q10.3068 7.07879 10.3547 7.17646Q10.4027 7.27414 10.4391 7.37531Q10.4754 7.47647 10.4999 7.58016Q10.5243 7.68385 10.5366 7.78907Q10.5489 7.89428 10.5489 8Q10.5489 8.10572 10.5366 8.21093Q10.5243 8.31614 10.4999 8.41983Q10.4754 8.52352 10.4391 8.62469Q10.4027 8.72586 10.3547 8.82353Q10.3068 8.92121 10.2477 9.01445Q10.1886 9.10768 10.119 9.19559Q10.0494 9.28349 9.96989 9.36522Q9.89039 9.44694 9.80178 9.52169Q9.71317 9.59645 9.6163 9.66352Q9.51944 9.73059 9.41524 9.78932Q9.31105 9.84806 9.20053 9.8979Q9.09001 9.94773 8.97424 9.98819Q8.85847 10.0286 8.73855 10.0593Q8.61863 10.09 8.49572 10.1107Q8.37282 10.1313 8.24811 10.1416Q8.1234 10.152 7.99809 10.152Q7.87277 10.152 7.74806 10.1416Q7.62335 10.1313 7.50045 10.1107Q7.37754 10.09 7.25762 10.0593Q7.13771 10.0286 7.02193 9.98819Q6.90616 9.94773 6.79564 9.8979Q6.68512 9.84806 6.58093 9.78932Q6.47674 9.73059 6.37987 9.66352Q6.283 9.59645 6.19439 9.52169Q6.10578 9.44694 6.02628 9.36522Q5.94678 9.28349 5.87716 9.19559Q5.80754 9.10768 5.74847 9.01445Q5.6894 8.92121 5.64144 8.82353Q5.59349 8.72586 5.55711 8.62469Q5.52073 8.52352 5.49629 8.41983Q5.47184 8.31614 5.45956 8.21093Q5.44727 8.10572 5.44727 8Q5.44727 7.89428 5.45956 7.78907Q5.47184 7.68385 5.49629 7.58016Q5.52073 7.47647 5.55711 7.37531Q5.59349 7.27414 5.64144 7.17646Q5.6894 7.07879 5.74847 6.98555Q5.80754 6.89231 5.87716 6.80441Q5.94678 6.71651 6.02628 6.63478Q6.10578 6.55306 6.19439 6.4783Q6.283 6.40355 6.37987 6.33648Q6.47674 6.26941 6.58093 6.21067Q6.68513 6.15194 6.79564 6.1021Q6.90616 6.05227 7.02193 6.01181Q7.13771 5.97135 7.25762 5.94066Q7.37754 5.90997 7.50045 5.88935Q7.62335 5.86872 7.74806 5.85836Q7.87277 5.848 7.99809 5.848ZM7.99809 6.924Q7.93543 6.924 7.87308 6.92918Q7.81072 6.93436 7.74927 6.94467Q7.68781 6.95499 7.62786 6.97033Q7.5679 6.98567 7.51001 7.0059Q7.45212 7.02613 7.39686 7.05105Q7.3416 7.07597 7.28951 7.10534Q7.23741 7.1347 7.18898 7.16824Q7.14054 7.20177 7.09624 7.23915Q7.05193 7.27653 7.01218 7.31739Q6.97243 7.35825 6.93762 7.4022Q6.90281 7.44616 6.87328 7.49277Q6.84374 7.53939 6.81976 7.58823Q6.79579 7.63707 6.7776 7.68765Q6.75941 7.73824 6.74719 7.79008Q6.73496 7.84193 6.72882 7.89453Q6.72268 7.94714 6.72268 8Q6.72268 8.05286 6.72882 8.10547Q6.73496 8.15807 6.74719 8.20992Q6.75941 8.26176 6.7776 8.31235Q6.79579 8.36293 6.81976 8.41177Q6.84374 8.4606 6.87328 8.50722Q6.90281 8.55384 6.93762 8.59779Q6.97243 8.64174 7.01218 8.68261Q7.05193 8.72347 7.09624 8.76085Q7.14054 8.79823 7.18898 8.83176Q7.23741 8.86529 7.28951 8.89466Q7.34161 8.92403 7.39686 8.94895Q7.45212 8.97387 7.51001 8.99409Q7.5679 9.01432 7.62786 9.02967Q7.68781 9.04501 7.74927 9.05533Q7.81072 9.06564 7.87307 9.07082Q7.93543 9.076 7.99809 9.076Q8.06074 9.076 8.1231 9.07082Q8.18545 9.06564 8.24691 9.05533Q8.30836 9.04501 8.36832 9.02967Q8.42828 9.01432 8.48616 8.99409Q8.54405 8.97387 8.59931 8.94895Q8.65457 8.92403 8.70666 8.89466Q8.75876 8.86529 8.80719 8.83176Q8.85563 8.79823 8.89993 8.76085Q8.94424 8.72347 8.98399 8.68261Q9.02374 8.64175 9.05855 8.59779Q9.09336 8.55384 9.12289 8.50722Q9.15243 8.4606 9.17641 8.41177Q9.20038 8.36293 9.21857 8.31235Q9.23676 8.26176 9.24899 8.20992Q9.26121 8.15807 9.26735 8.10547Q9.27349 8.05286 9.27349 8Q9.27349 7.94714 9.26735 7.89453Q9.26121 7.84193 9.24899 7.79008Q9.23676 7.73824 9.21857 7.68765Q9.20038 7.63707 9.17641 7.58823Q9.15243 7.53939 9.12289 7.49278Q9.09336 7.44616 9.05855 7.4022Q9.02374 7.35825 8.98399 7.31739Q8.94424 7.27653 8.89993 7.23915Q8.85563 7.20177 8.8072 7.16824Q8.75876 7.1347 8.70666 7.10534Q8.65457 7.07597 8.59931 7.05105Q8.54405 7.02613 8.48616 7.0059Q8.42828 6.98567 8.36832 6.97033Q8.30836 6.95499 8.24691 6.94467Q8.18545 6.93436 8.1231 6.92918Q8.06074 6.924 7.99809 6.924Z" fill-rule="nonzero" transform="matrix(1937.3494, 0, 0, 1937.3495, -2698.7915, -2698.7961)" fill="#6393ff" fill-opacity="1" stroke="#ffffff" stroke-width="0" stroke-linecap="butt" stroke-linejoin="miter" opacity="1" id="Path" />
  <path d="M0 0L0 3.99753L2.00261 3.99753L2.00261 1.99013L3.99423 1.99013L3.99423 0L0 0ZM12.0058 0L12.0058 1.99013L14.0026 1.99013L14.0026 3.99753L16 3.99753L16 0L12.0058 0ZM0 11.9984L0 16L3.99423 16L3.99423 14.0004L2.00261 14.0004L2.00261 11.9984L0 11.9984ZM14.0026 11.9984L14.0026 14.0004L12.0058 14.0004L12.0058 16L16 16L16 11.9984L14.0026 11.9984ZM9.99919 1.99013L9.99919 0L6.00087 0L6.00087 1.99013M16 10.0025L14.0026 10.0025L14.0026 6.00639L16 6.00639M0 6.00639L2.00261 6.00639L2.00261 10.0025L0 10.0025M6.00087 16C6.00087 16 9.99919 16 9.99919 16L9.99919 14.0004C9.99919 14.0004 6.00087 14.0004 6.00087 14.0004" fill-rule="nonzero" transform="matrix(1601.105, 0, 0, 1599.9998, 0, -9.536743E-05)" fill="#6997ff" fill-opacity="0.5607843399047852" stroke="#ffffff" stroke-width="0" stroke-linecap="butt" stroke-linejoin="miter" opacity="1" id="Path" />
</svg>