<!-- Created with PixiEditor (https://pixieditor.net) -->
<svg version="1.1" viewBox="0 0 256 256" xmlns="http://www.w3.org/2000/svg">
  <path d="M0 -9.53674e-07L0 3.99752L2.00261 3.99752L2.00261 1.99013L3.99423 1.99013L3.99423 -9.53674e-07L0 -9.53674e-07ZM12.0058 -9.53674e-07L12.0058 1.99013L14.0026 1.99013L14.0026 3.99752L16 3.99752L16 -9.53674e-07L12.0058 -9.53674e-07ZM0 11.9984L0 16L3.99423 16L3.99423 14.0004L2.00261 14.0004L2.00261 11.9984L0 11.9984ZM14.0026 11.9984L14.0026 14.0004L12.0058 14.0004L12.0058 16L16 16L16 11.9984L14.0026 11.9984ZM9.99919 1.99013L9.99919 -9.53674e-07L6.00087 -9.53674e-07L6.00087 1.99013M16 10.0025L14.0026 10.0025L14.0026 6.00639L16 6.00639M0 6.00639L2.00261 6.00639L2.00261 10.0025L0 10.0025M6.00087 16C6.00087 16 9.99919 16 9.99919 16L9.99919 14.0004C9.99919 14.0004 6.00087 14.0004 6.00087 14.0004" fill-rule="nonzero" transform="matrix(16, 0, 0, 16, 0, 0)" fill="#ffffff" fill-opacity="0.5607843399047852" stroke="#ffffff" stroke-width="0" stroke-linecap="butt" stroke-linejoin="miter" opacity="1" id="Path" />
  <path d="M6.43807 3.36138Q6.25967 3.36179 6.08335 3.38892Q5.90703 3.41604 5.73676 3.46929Q5.5665 3.52253 5.40613 3.60069Q5.24577 3.67884 5.09892 3.78015Q4.95208 3.88145 4.82207 4.00362Q4.69207 4.12578 4.58184 4.26604Q4.4716 4.40631 4.38364 4.56151Q4.29567 4.71671 4.23195 4.88334Q4.16823 5.04996 4.13019 5.22426Q4.09216 5.39856 4.08067 5.57658Q4.06919 5.75461 4.08451 5.93235Q4.09983 6.11008 4.14161 6.28352Q4.18339 6.45695 4.25069 6.62217Q4.31799 6.78739 4.40928 6.94065Q4.50058 7.09392 4.6138 7.23178Q4.72703 7.36963 4.85964 7.48896L4.85964 8.88587L2.49201 7.30745L2.49201 12.0427L4.85964 10.4643L4.85964 11.2535Q4.85964 11.3312 4.87481 11.4075Q4.88997 11.4837 4.91972 11.5555Q4.94946 11.6273 4.99265 11.692Q5.03583 11.7566 5.0908 11.8116Q5.14576 11.8665 5.21039 11.9097Q5.27502 11.9529 5.34684 11.9826Q5.41865 12.0124 5.49489 12.0276Q5.57113 12.0427 5.64886 12.0427L8.01649 12.0427Q8.06448 11.7529 8.2135 11.4998Q8.36252 11.2467 8.59262 11.0641Q8.48702 10.9852 8.39745 10.8885Q8.30788 10.7919 8.23728 10.6806Q8.16669 10.5693 8.1174 10.447Q8.06812 10.3248 8.04177 10.1957Q8.01543 10.0665 8.01289 9.93476Q8.01036 9.80298 8.03172 9.67293Q8.05308 9.54287 8.09762 9.41883Q8.14217 9.29479 8.20843 9.18086Q8.27469 9.06693 8.36048 8.96688Q8.44627 8.86683 8.54875 8.78396Q8.65124 8.70108 8.76703 8.63813Q8.88282 8.57518 9.00809 8.53422Q9.13336 8.49327 9.26398 8.47566Q9.39459 8.45806 9.52624 8.46439Q9.65788 8.47071 9.78621 8.50077Q9.91453 8.53082 10.0353 8.5836Q10.0479 8.47462 10.077 8.36885Q10.1062 8.26309 10.1513 8.16306Q10.1963 8.06303 10.2562 7.9711Q10.3161 7.87918 10.3894 7.79753Q10.4627 7.71589 10.5476 7.64647Q10.6326 7.57705 10.7272 7.5215Q10.8218 7.46595 10.9238 7.42559Q11.0258 7.38522 11.1329 7.361Q11.2399 7.33677 11.3493 7.32927Q11.4588 7.32176 11.5681 7.33115Q11.6774 7.34054 11.784 7.3666Q11.8905 7.39266 11.9918 7.43477Q12.0931 7.47689 12.1868 7.53406Q12.2804 7.59123 12.3642 7.6621Q12.4479 7.73297 12.5198 7.81586Q12.5917 7.89875 12.65 7.99169Q12.7053 7.80729 12.7302 7.61636Q12.755 7.42543 12.7487 7.233Q12.7423 7.04057 12.705 6.85168Q12.6677 6.6628 12.6003 6.48244Q12.5329 6.30207 12.4373 6.13496Q12.3417 5.96785 12.2203 5.81838Q12.0989 5.66892 11.955 5.54103Q11.8111 5.41314 11.6484 5.31018Q11.4857 5.20722 11.3085 5.13191Q11.1313 5.05659 10.9443 5.01089Q10.7572 4.9652 10.5653 4.95032Q10.3733 4.93544 10.1814 4.95178Q9.98961 4.96811 9.80292 5.01523Q9.61624 5.06235 9.43962 5.13901Q9.26301 5.21567 9.10109 5.31986Q8.93918 5.42405 8.79623 5.55303Q8.78801 5.44263 8.76951 5.33348Q8.75102 5.22433 8.72242 5.11738Q8.69382 5.01043 8.65536 4.90662Q8.61691 4.80281 8.56894 4.70304Q8.52097 4.60326 8.46389 4.50841Q8.40682 4.41355 8.34114 4.32443Q8.27547 4.23531 8.20176 4.1527Q8.12806 4.0701 8.04697 3.99473Q7.96588 3.91937 7.87811 3.8519Q7.79034 3.78443 7.69665 3.72544Q7.60297 3.66646 7.50419 3.61647Q7.40541 3.56649 7.3024 3.52594Q7.19939 3.48539 7.09304 3.45462Q6.9867 3.42386 6.87795 3.40316Q6.76919 3.38245 6.65898 3.37199Q6.54877 3.36152 6.43807 3.36138ZM11.4575 8.56861Q11.4238 8.5687 11.3906 8.6009Q11.3574 8.63311 11.3254 8.6966Q11.2935 8.76009 11.2636 8.85326Q11.2338 8.94643 11.2068 9.06691Q11.1798 9.18739 11.1563 9.33211Q11.1328 9.47683 11.1135 9.64211Q11.0941 9.80739 11.0794 9.98904Q11.0647 10.1707 11.055 10.3641Q10.8796 10.2736 10.7117 10.1933Q10.5438 10.113 10.3877 10.0451Q10.2316 9.97724 10.0914 9.92346Q9.95121 9.86969 9.83056 9.83145Q9.70992 9.79321 9.61199 9.7715Q9.51405 9.74979 9.44139 9.74518Q9.36873 9.74057 9.32324 9.75319Q9.27775 9.7658 9.26062 9.7953Q9.24349 9.82481 9.25517 9.87043Q9.26684 9.91605 9.30702 9.97661Q9.3472 10.0372 9.41483 10.1111Q9.48247 10.1849 9.57578 10.2703Q9.6691 10.3556 9.78566 10.4501Q9.90223 10.5446 10.039 10.6458Q10.1757 10.747 10.3291 10.8522Q10.4825 10.9575 10.6485 11.0641Q10.4825 11.1707 10.3291 11.276Q10.1757 11.3812 10.039 11.4824Q9.90223 11.5836 9.78566 11.6781Q9.6691 11.7726 9.57578 11.8579Q9.48247 11.9432 9.41483 12.0171Q9.3472 12.091 9.30702 12.1516Q9.26684 12.2121 9.25516 12.2578Q9.24349 12.3034 9.26062 12.3329Q9.27775 12.3624 9.32324 12.375Q9.36873 12.3876 9.44139 12.383Q9.51405 12.3784 9.61198 12.3567Q9.70992 12.335 9.83056 12.2967Q9.95121 12.2585 10.0914 12.2047Q10.2316 12.151 10.3877 12.0831Q10.5438 12.0152 10.7117 11.9349Q10.8796 11.8546 11.055 11.7641Q11.0647 11.9572 11.0795 12.1386Q11.0942 12.32 11.1136 12.4849Q11.133 12.6499 11.1564 12.7943Q11.1799 12.9388 11.2069 13.059Q11.2339 13.1792 11.2638 13.2721Q11.2936 13.365 11.3255 13.4283Q11.3575 13.4916 11.3907 13.5237Q11.4238 13.5557 11.4575 13.5557Q11.4911 13.5557 11.5243 13.5237Q11.5575 13.4916 11.5894 13.4283Q11.6213 13.365 11.6511 13.2721Q11.681 13.1792 11.708 13.059Q11.735 12.9388 11.7585 12.7943Q11.782 12.6499 11.8013 12.4849Q11.8207 12.32 11.8354 12.1386Q11.8502 11.9572 11.86 11.7641Q12.0353 11.8546 12.2032 11.9349Q12.3711 12.0151 12.5272 12.0831Q12.6833 12.151 12.8235 12.2047Q12.9637 12.2585 13.0844 12.2967Q13.205 12.335 13.3029 12.3567Q13.4009 12.3784 13.4735 12.383Q13.5462 12.3876 13.5917 12.375Q13.6372 12.3624 13.6543 12.3329Q13.6714 12.3034 13.6598 12.2578Q13.6481 12.2121 13.6079 12.1516Q13.5677 12.091 13.5001 12.0171Q13.4325 11.9432 13.3391 11.8579Q13.2458 11.7726 13.1293 11.6781Q13.0127 11.5836 12.8759 11.4824Q12.7392 11.3812 12.5858 11.276Q12.4324 11.1707 12.2664 11.0641Q12.4324 10.9575 12.5858 10.8522Q12.7392 10.747 12.8759 10.6458Q13.0127 10.5446 13.1293 10.4501Q13.2458 10.3556 13.3391 10.2703Q13.4325 10.1849 13.5001 10.1111Q13.5677 10.0372 13.6079 9.97661Q13.6481 9.91605 13.6598 9.87043Q13.6714 9.82481 13.6543 9.7953Q13.6372 9.7658 13.5917 9.75319Q13.5462 9.74057 13.4735 9.74518Q13.4009 9.74979 13.3029 9.7715Q13.205 9.79321 13.0844 9.83145Q12.9637 9.86969 12.8235 9.92346Q12.6833 9.97724 12.5272 10.0451Q12.3711 10.113 12.2032 10.1933Q12.0353 10.2736 11.86 10.3641Q11.8502 10.1707 11.8355 9.98904Q11.8208 9.80739 11.8014 9.64211Q11.7821 9.47683 11.7586 9.33211Q11.7351 9.18739 11.7081 9.06691Q11.6811 8.94643 11.6513 8.85326Q11.6214 8.76009 11.5895 8.6966Q11.5575 8.63311 11.5243 8.6009Q11.4911 8.5687 11.4575 8.56861Z" fill-rule="nonzero" transform="matrix(16, 0, 0, 16, 0, 0)" fill="#e0e0e0" fill-opacity="1" stroke="#ffffff" stroke-width="0" stroke-linecap="butt" stroke-linejoin="miter" opacity="1" id="Path" />
</svg>